HIERARCHY
ROOT joint_Root
{
	OFFSET 0.0 0.0 0.0
	CHANNELS 6 Xposition Yposition Zposition Zrotation Xrotation Yrotation 
	JOINT Hips
	{
		OFFSET -0.726466 93.3139 -2.00062
		CHANNELS 6 Xposition Yposition Zposition Zrotation Xrotation Yrotation 
		JOINT Spine
		{
			OFFSET 15.7357 0.0 0.0
			CHANNELS 6 Xposition Yposition Zposition Zrotation Xrotation Yrotation 
			JOINT Chest
			{
				OFFSET 8.98455 -0.406207 0.0
				CHANNELS 6 Xposition Yposition Zposition Zrotation Xrotation Yrotation 
				JOINT Neck
				{
					OFFSET 16.3773 0.0 0.0
					CHANNELS 6 Xposition Yposition Zposition Zrotation Xrotation Yrotation 
					JOINT Head
					{
						OFFSET 6.45672 0.0 0.0
						CHANNELS 6 Xposition Yposition Zposition Zrotation Xrotation Yrotation 
						End Site
						{
							OFFSET 0.0 0.0 0.0
						}
					}
				}
				JOINT Shoulder_L
				{
					OFFSET 12.9942 -0.242716 4.98039
					CHANNELS 6 Xposition Yposition Zposition Zrotation Xrotation Yrotation 
					JOINT UpperArm_L
					{
						OFFSET 5.34809 0.0 0.0
						CHANNELS 6 Xposition Yposition Zposition Zrotation Xrotation Yrotation 
						JOINT LowerArm_L
						{
							OFFSET 24.3286 1.87007e-05 0.0
							CHANNELS 6 Xposition Yposition Zposition Zrotation Xrotation Yrotation 
							JOINT Hand_L
							{
								OFFSET 22.2916 0.0 0.0
								CHANNELS 6 Xposition Yposition Zposition Zrotation Xrotation Yrotation 
								End Site
								{
									OFFSET 0.0 0.0 0.0
								}
							}
						}
					}
				}
				JOINT Shoulder_R
				{
					OFFSET 12.9945 -0.242716 -4.98039
					CHANNELS 6 Xposition Yposition Zposition Zrotation Xrotation Yrotation 
					JOINT UpperArm_R
					{
						OFFSET -5.34813 0.0 0.0
						CHANNELS 6 Xposition Yposition Zposition Zrotation Xrotation Yrotation 
						JOINT LowerArm_R
						{
							OFFSET -24.3289 0.000322201 0.0
							CHANNELS 6 Xposition Yposition Zposition Zrotation Xrotation Yrotation 
							JOINT Hand_R
							{
								OFFSET -22.2915 -0.000108084 0.0
								CHANNELS 6 Xposition Yposition Zposition Zrotation Xrotation Yrotation 
								End Site
								{
									OFFSET 0.0 0.0 0.0
								}
							}
						}
					}
				}
			}
		}
		JOINT UpperLeg_L
		{
			OFFSET -2.19248 -6.46944 0.0
			CHANNELS 6 Xposition Yposition Zposition Zrotation Xrotation Yrotation 
			JOINT LowerLeg_L
			{
				OFFSET 39.0811 0.0 -1.23785e-05
				CHANNELS 6 Xposition Yposition Zposition Zrotation Xrotation Yrotation 
				JOINT Foot_L
				{
					OFFSET 40.9854 0.0 -1.26872e-05
					CHANNELS 6 Xposition Yposition Zposition Zrotation Xrotation Yrotation 
					JOINT Toes_L
					{
						OFFSET 11.7543 0.0 0.0
						CHANNELS 6 Xposition Yposition Zposition Zrotation Xrotation Yrotation 
						End Site
						{
							OFFSET 0.0 0.0 0.0
						}
					}
				}
			}
		}
		JOINT UpperLeg_R
		{
			OFFSET -2.19251 6.46944 0.0
			CHANNELS 6 Xposition Yposition Zposition Zrotation Xrotation Yrotation 
			JOINT LowerLeg_R
			{
				OFFSET -39.0811 -0.00228153 -0.0401928
				CHANNELS 6 Xposition Yposition Zposition Zrotation Xrotation Yrotation 
				JOINT Foot_R
				{
					OFFSET -40.9854 0.0 0.0
					CHANNELS 6 Xposition Yposition Zposition Zrotation Xrotation Yrotation 
					JOINT Toes_R
					{
						OFFSET -11.7543 0.0 0.0
						CHANNELS 6 Xposition Yposition Zposition Zrotation Xrotation Yrotation 
						End Site
						{
							OFFSET 0.0 0.0 0.0
						}
					}
				}
			}
		}
	}
}
MOTION
Frames:	9
Frame Time:	0.0333333
0.000000 0.000000 0.000000 0.000000 0.000000 -0.000000 -1.364400 91.831600 -0.738209 88.638300 -0.806070 5.584980 15.735700 0.000005 -0.000001 74.437400 85.188700 -69.920700 8.984550 -0.406207 -0.000000 1.633070 -2.821440 9.067200 16.377300 -0.000001 -0.000001 2.102290 -1.443410 0.285093 6.456720 -0.000001 -0.000000 0.372357 -1.976250 13.664600 12.994200 -0.242716 4.980390 -84.632200 -10.713400 -63.185700 5.348090 -0.000007 -0.000001 -56.073700 -55.389900 -86.070600 24.328600 0.000019 0.000005 -1.988440 -2.651240 -36.894000 22.291600 -0.000001 0.000005 21.865600 5.519030 -7.321130 12.994500 -0.242716 -4.980390 90.162500 -0.430123 -69.300500 -5.348130 -0.000001 -0.000004 -45.991700 73.957200 0.240736 -24.328900 0.000322 -0.000009 21.068900 0.496100 -88.713300 -22.291500 -0.000108 -0.000004 35.791300 5.678510 -23.139800 -2.192480 -6.469440 -0.000000 -168.789000 -16.789400 -0.831458 39.081100 -0.000007 -0.000012 -0.187695 0.454885 22.422300 40.985400 -0.000006 -0.000013 -7.564610 -2.485050 -63.641400 11.754300 -0.000000 0.000003 -0.000105 -0.001073 -16.618700 -2.192510 6.469440 -0.000001 172.505000 21.895100 -179.026000 -39.081100 -0.002282 -0.040193 -0.105428 0.275322 21.553000 -40.985400 0.000008 0.000006 -5.132830 0.803824 -64.352300 -11.754300 -0.000006 -0.000006 -0.002993 -0.040527 -18.221300
0.000000 0.000000 0.000000 0.000000 0.000000 -0.000000 -1.315300 91.840300 -0.723905 88.657800 -1.022950 5.578540 15.735700 0.000005 -0.000001 73.752700 85.177700 -69.221100 8.984550 -0.406207 -0.000000 1.628100 -2.939160 9.098630 16.377300 -0.000001 -0.000001 2.212960 -1.310690 -0.053637 6.456720 -0.000001 -0.000000 0.328039 -1.891350 13.740000 12.994200 -0.242716 4.980390 -84.516900 -10.811900 -62.900300 5.348090 -0.000007 -0.000001 -56.106500 -56.123400 -90.472200 24.328600 0.000019 0.000005 -1.734170 -2.130660 -39.161300 22.291600 -0.000001 0.000005 21.320200 5.522310 -7.461280 12.994500 -0.242716 -4.980390 90.177200 -0.469641 -69.330300 -5.348130 -0.000001 -0.000004 -45.919200 73.927400 0.149630 -24.328900 0.000322 -0.000009 21.152800 0.499987 -88.708800 -22.291500 -0.000108 -0.000004 35.804400 5.678890 -23.029100 -2.192480 -6.469440 -0.000000 -168.820000 -16.878400 -0.723604 39.081100 -0.000007 -0.000012 -0.185468 0.451175 22.346700 40.985400 -0.000006 -0.000013 -7.569210 -2.595380 -63.666200 11.754300 -0.000000 0.000003 -0.000098 -0.001012 -16.616400 -2.192510 6.469440 -0.000001 172.484000 21.731400 -179.046000 -39.081100 -0.002282 -0.040193 -0.104711 0.274332 21.494100 -40.985400 0.000008 0.000006 -5.153080 0.828694 -64.292300 -11.754300 -0.000006 -0.000006 -0.002870 -0.039117 -18.163900
0.000000 0.000000 0.000000 0.000000 0.000000 -0.000000 -1.261420 91.843000 -0.724876 88.727000 -1.191750 5.516910 15.735700 0.000005 -0.000001 72.966900 85.179000 -68.443500 8.984550 -0.406207 -0.000000 1.592520 -3.066020 9.083290 16.377300 -0.000001 -0.000001 2.302770 -1.167020 -0.350462 6.456720 -0.000001 -0.000000 0.285057 -1.811270 13.795800 12.994200 -0.242716 4.980390 -84.381100 -10.929500 -62.575100 5.348090 -0.000007 -0.000001 -56.406400 -56.700800 -95.088100 24.328600 0.000019 0.000005 -1.626930 -1.831930 -41.624700 22.291600 -0.000001 0.000005 21.031100 5.529560 -7.776520 12.994500 -0.242716 -4.980390 90.175000 -0.464765 -69.370500 -5.348130 -0.000001 -0.000004 -45.893300 73.831600 0.150865 -24.328900 0.000322 -0.000009 21.104000 0.494280 -88.720400 -22.291500 -0.000108 -0.000004 35.658800 5.678490 -23.145800 -2.192480 -6.469440 -0.000000 -168.944000 -16.968600 -0.742580 39.081100 -0.000007 -0.000012 -0.184789 0.450110 22.320400 40.985400 -0.000006 -0.000013 -7.556470 -2.735350 -63.682400 11.754300 -0.000000 0.000003 -0.000102 -0.001046 -16.617700 -2.192510 6.469440 -0.000001 172.402000 21.677600 -179.153000 -39.081100 -0.002282 -0.040193 -0.105398 0.275804 21.513600 -40.985400 0.000008 0.000006 -5.162810 0.963551 -64.262500 -11.754300 -0.000006 -0.000006 -0.002999 -0.040589 -18.223800
0.000000 0.000000 0.000000 0.000000 0.000000 -0.000000 -1.227080 91.851600 -0.734405 88.743600 -1.349060 5.466100 15.735700 0.000005 -0.000001 72.247800 85.199800 -67.729100 8.984550 -0.406207 -0.000000 1.520790 -3.171400 9.073620 16.377300 -0.000001 -0.000001 2.430980 -0.992599 -0.640646 6.456720 -0.000001 -0.000000 0.293095 -1.693930 13.932700 12.994200 -0.242716 4.980390 -84.228700 -11.080200 -62.259800 5.348090 -0.000007 -0.000001 -56.943500 -56.977400 -99.846500 24.328600 0.000019 0.000005 -1.597290 -1.643700 -44.190400 22.291600 -0.000001 0.000005 20.790700 5.539110 -8.202530 12.994500 -0.242716 -4.980390 90.172600 -0.459159 -69.392700 -5.348130 -0.000001 -0.000004 -45.966800 73.802900 0.249072 -24.328900 0.000322 -0.000009 21.123300 0.498666 -88.710300 -22.291500 -0.000108 -0.000004 35.613700 5.678470 -23.146700 -2.192480 -6.469440 -0.000000 -168.983000 -17.154600 -0.747300 39.081100 -0.000007 -0.000012 -0.183166 0.446922 22.285900 40.985400 -0.000006 -0.000013 -7.521570 -2.730810 -63.671500 11.754300 -0.000000 0.000003 -0.000113 -0.001146 -16.621400 -2.192510 6.469440 -0.000001 172.404000 21.565200 -179.229000 -39.081100 -0.002282 -0.040193 -0.105300 0.276224 21.466200 -40.985400 0.000008 0.000006 -5.172670 0.994807 -64.203500 -11.754300 -0.000006 -0.000006 -0.002856 -0.038959 -18.157500
0.000000 0.000000 0.000000 0.000000 0.000000 -0.000000 -1.199930 91.855000 -0.717854 88.784400 -1.388170 5.434090 15.735700 0.000005 -0.000001 71.175800 85.202000 -66.679200 8.984550 -0.406207 -0.000000 1.466420 -3.341430 9.030490 16.377300 -0.000001 -0.000001 2.488120 -0.821743 -0.915730 6.456720 -0.000001 -0.000000 0.367746 -1.530410 14.119700 12.994200 -0.242716 4.980390 -84.135200 -11.148000 -62.019200 5.348090 -0.000007 -0.000001 -57.216100 -57.165500 -104.363000 24.328600 0.000019 0.000005 -1.882340 -1.777290 -46.656200 22.291600 -0.000001 0.000005 20.746000 5.549470 -8.682130 12.994500 -0.242716 -4.980390 90.157300 -0.419852 -69.458400 -5.348130 -0.000001 -0.000004 -46.006500 73.700100 0.331707 -24.328900 0.000322 -0.000009 21.088200 0.502625 -88.697700 -22.291500 -0.000108 -0.000004 35.486500 5.678310 -23.196700 -2.192480 -6.469440 -0.000000 -169.030000 -17.215300 -0.717278 39.081100 -0.000007 -0.000012 -0.182982 0.447861 22.223600 40.985400 -0.000006 -0.000013 -7.510050 -2.704050 -63.664200 11.754300 -0.000000 0.000003 -0.000089 -0.000931 -16.613400 -2.192510 6.469440 -0.000001 172.358000 21.539500 -179.259000 -39.081100 -0.002282 -0.040193 -0.105224 0.276166 21.456700 -40.985400 0.000008 0.000006 -5.190580 1.007900 -64.194200 -11.754300 -0.000006 -0.000006 -0.002970 -0.040265 -18.210600
0.000000 0.000000 0.000000 0.000000 0.000000 -0.000000 -1.202930 91.858300 -0.710827 88.775500 -1.331480 5.409470 15.735700 0.000005 -0.000001 70.004700 85.197300 -65.521200 8.984550 -0.406207 -0.000000 1.417220 -3.530770 9.005500 16.377300 -0.000001 -0.000001 2.558020 -0.702316 -1.127750 6.456720 -0.000001 -0.000000 0.423368 -1.423060 14.225500 12.994200 -0.242716 4.980390 -84.133400 -11.102000 -61.914900 5.348090 -0.000007 -0.000001 -57.408800 -57.219200 -108.802000 24.328600 0.000019 0.000005 -1.998880 -1.758450 -48.680900 22.291600 -0.000001 0.000005 20.479700 5.557010 -9.042280 12.994500 -0.242716 -4.980390 90.149200 -0.398337 -69.471400 -5.348130 -0.000001 -0.000004 -45.770200 73.565100 0.085901 -24.328900 0.000322 -0.000009 21.012600 0.514670 -88.661200 -22.291500 -0.000108 -0.000004 35.269300 5.677400 -23.435000 -2.192480 -6.469440 -0.000000 -169.014000 -17.279700 -0.740559 39.081100 -0.000007 -0.000012 -0.183559 0.449665 22.206100 40.985400 -0.000006 -0.000013 -7.486320 -2.585420 -63.637700 11.754300 -0.000000 0.000003 -0.000103 -0.001051 -16.617900 -2.192510 6.469440 -0.000001 172.382000 21.532000 -179.250000 -39.081100 -0.002282 -0.040193 -0.104688 0.275386 21.415200 -40.985400 0.000008 0.000006 -5.205180 0.939576 -64.190200 -11.754300 -0.000006 -0.000006 -0.002761 -0.037864 -18.112900
0.000000 0.000000 0.000000 0.000000 0.000000 -0.000000 -1.207600 91.846800 -0.700349 88.800400 -1.260650 5.472850 15.735700 0.000005 -0.000001 69.176300 85.165100 -64.723900 8.984550 -0.406207 -0.000000 1.433990 -3.681390 8.945740 16.377300 -0.000001 -0.000001 2.609850 -0.632829 -1.299700 6.456720 -0.000001 -0.000000 0.421651 -1.344300 14.327200 12.994200 -0.242716 4.980390 -84.149800 -11.019900 -61.807600 5.348090 -0.000007 -0.000001 -57.989100 -56.793300 -113.331000 24.328600 0.000019 0.000005 -1.923310 -1.606130 -50.151400 22.291600 -0.000001 0.000005 20.153800 5.561770 -9.274590 12.994500 -0.242716 -4.980390 90.123800 -0.330463 -69.466500 -5.348130 -0.000001 -0.000004 -45.248800 73.503900 -0.365873 -24.328900 0.000322 -0.000009 20.978000 0.504431 -88.685500 -22.291500 -0.000108 -0.000004 35.106000 5.677180 -23.492100 -2.192480 -6.469440 -0.000000 -169.027000 -17.247400 -0.719025 39.081100 -0.000007 -0.000012 -0.183109 0.447012 22.275700 40.985400 -0.000006 -0.000013 -7.483180 -2.576120 -63.670200 11.754300 -0.000000 0.000003 -0.000095 -0.000981 -16.615200 -2.192510 6.469440 -0.000001 172.325000 21.525600 -179.203000 -39.081100 -0.002282 -0.040193 -0.106795 0.279503 21.502600 -40.985400 0.000008 0.000006 -5.222020 0.895664 -64.255400 -11.754300 -0.000006 -0.000006 -0.002938 -0.039901 -18.195800
0.000000 0.000000 0.000000 0.000000 0.000000 -0.000000 -1.219140 91.843800 -0.686057 88.806100 -1.146690 5.536470 15.735700 0.000005 -0.000001 68.422900 85.130600 -63.982100 8.984550 -0.406207 -0.000000 1.457660 -3.823710 8.925500 16.377300 -0.000001 -0.000001 2.623090 -0.558611 -1.498100 6.456720 -0.000001 -0.000000 0.471983 -1.293900 14.318700 12.994200 -0.242716 4.980390 -84.108300 -11.067700 -61.739500 5.348090 -0.000007 -0.000001 -59.583800 -55.586600 -117.723000 24.328600 0.000019 0.000005 -1.778140 -1.412060 -51.557400 22.291600 -0.000001 0.000005 19.668000 5.565460 -9.458260 12.994500 -0.242716 -4.980390 90.125400 -0.335264 -69.496000 -5.348130 -0.000001 -0.000004 -44.783800 73.458600 -0.819782 -24.328900 0.000322 -0.000009 20.999900 0.506185 -88.682400 -22.291500 -0.000108 -0.000004 35.059300 5.677050 -23.523600 -2.192480 -6.469440 -0.000000 -169.000000 -17.188900 -0.661374 39.081100 -0.000007 -0.000012 -0.184381 0.450300 22.267500 40.985400 -0.000006 -0.000013 -7.480220 -2.483520 -63.659100 11.754300 -0.000000 0.000003 -0.000109 -0.001103 -16.619800 -2.192510 6.469440 -0.000001 172.283000 21.638100 -179.108000 -39.081100 -0.002282 -0.040193 -0.106088 0.277429 21.522300 -40.985400 0.000008 0.000006 -5.215950 0.894085 -64.287100 -11.754300 -0.000006 -0.000006 -0.002871 -0.039136 -18.164600
0.000000 0.000000 0.000000 0.000000 0.000000 -0.000000 -1.234380 91.837000 -0.685454 88.811300 -1.117330 5.574080 15.735700 0.000005 -0.000001 67.980400 85.095300 -63.543100 8.984550 -0.406207 -0.000000 1.498830 -3.918110 8.921100 16.377300 -0.000001 -0.000001 2.575320 -0.465287 -1.743590 6.456720 -0.000001 -0.000000 0.423800 -1.172160 14.318700 12.994200 -0.242716 4.980390 -84.074400 -11.118200 -61.708800 5.348090 -0.000007 -0.000001 -61.214800 -54.206900 -121.175000 24.328600 0.000019 0.000005 -1.957540 -1.493720 -52.667700 22.291600 -0.000001 0.000005 19.650700 5.568270 -9.600350 12.994500 -0.242716 -4.980390 90.108900 -0.291831 -69.540600 -5.348130 -0.000001 -0.000004 -44.066300 73.544100 -1.459060 -24.328900 0.000322 -0.000009 20.974900 0.486389 -88.732300 -22.291500 -0.000108 -0.000004 35.155500 5.677290 -23.461600 -2.192480 -6.469440 -0.000000 -168.993000 -17.159500 -0.653002 39.081100 -0.000007 -0.000012 -0.184543 0.449739 22.310200 40.985400 -0.000006 -0.000013 -7.487880 -2.495080 -63.674900 11.754300 -0.000000 0.000003 -0.000119 -0.001196 -16.623300 -2.192510 6.469440 -0.000001 172.273000 21.582300 -179.081000 -39.081100 -0.002282 -0.040193 -0.106551 0.277961 21.567500 -40.985400 0.000008 0.000006 -5.225260 0.851054 -64.327900 -11.754300 -0.000006 -0.000006 -0.002988 -0.040470 -18.218900
